# MagicaVoxel @ Ephtracy

# group
o 

# material
mtllib sword.mtl
usemtl palette

# normals
vn -1 0 0
vn 1 0 0
vn 0 0 1
vn 0 0 -1
vn 0 -1 0
vn 0 1 0

# texcoords
vt 0.537109 0.5
vt 0.982422 0.5
vt 0.986328 0.5

# verts
v 1.7 2.6 -1.9
v 1.7 2.6 -2
v 1.7 2.7 -1.9
v 1.7 2.7 -2
v 1.8 2.7 -1.9
v 1.8 2.7 -2
v 1.8 4.4 -1.9
v 1.8 4.4 -2
v 1.9 2 -1.9
v 1.9 2 -2
v 1.9 2.1 -1.9
v 1.9 2.1 -2
v 1.9 2.6 -1.9
v 1.9 2.6 -2
v 1.9 4.4 -1.9
v 1.9 4.4 -2
v 1.9 4.5 -1.9
v 1.9 4.5 -2
v 2 2 -1.9
v 2 2 -2
v 2 2.1 -1.9
v 2 2.1 -2
v 2 2.6 -1.9
v 2 2.6 -2
v 2 4.4 -1.9
v 2 4.4 -2
v 2 4.5 -1.9
v 2 4.5 -2
v 2.1 2.7 -1.9
v 2.1 2.7 -2
v 2.1 4.4 -1.9
v 2.1 4.4 -2
v 2.2 2.6 -1.9
v 2.2 2.6 -2
v 2.2 2.7 -1.9
v 2.2 2.7 -2
v 1.7 2.6 -1.9
v 1.7 2.7 -1.9
v 1.8 2.7 -1.9
v 1.8 4.4 -1.9
v 1.9 2 -1.9
v 1.9 2.1 -1.9
v 1.9 2.6 -1.9
v 1.9 2.7 -1.9
v 1.9 4.3 -1.9
v 1.9 4.4 -1.9
v 1.9 4.5 -1.9
v 2 2 -1.9
v 2 2.1 -1.9
v 2 2.6 -1.9
v 2 2.7 -1.9
v 2 4.3 -1.9
v 2 4.4 -1.9
v 2 4.5 -1.9
v 2.1 2.7 -1.9
v 2.1 4.4 -1.9
v 2.2 2.6 -1.9
v 2.2 2.7 -1.9
v 1.7 2.6 -2
v 1.7 2.7 -2
v 1.8 2.7 -2
v 1.8 4.4 -2
v 1.9 2 -2
v 1.9 2.1 -2
v 1.9 2.6 -2
v 1.9 2.7 -2
v 1.9 4.3 -2
v 1.9 4.4 -2
v 1.9 4.5 -2
v 2 2 -2
v 2 2.1 -2
v 2 2.6 -2
v 2 2.7 -2
v 2 4.3 -2
v 2 4.4 -2
v 2 4.5 -2
v 2.1 2.7 -2
v 2.1 4.4 -2
v 2.2 2.6 -2
v 2.2 2.7 -2
v 1.9 2 -1.9
v 2 2 -1.9
v 1.9 2 -2
v 2 2 -2
v 1.7 2.6 -1.9
v 1.9 2.6 -1.9
v 2 2.6 -1.9
v 2.2 2.6 -1.9
v 1.7 2.6 -2
v 1.9 2.6 -2
v 2 2.6 -2
v 2.2 2.6 -2
v 1.7 2.7 -1.9
v 1.8 2.7 -1.9
v 2.1 2.7 -1.9
v 2.2 2.7 -1.9
v 1.7 2.7 -2
v 1.8 2.7 -2
v 2.1 2.7 -2
v 2.2 2.7 -2
v 1.8 4.4 -1.9
v 1.9 4.4 -1.9
v 2 4.4 -1.9
v 2.1 4.4 -1.9
v 1.8 4.4 -2
v 1.9 4.4 -2
v 2 4.4 -2
v 2.1 4.4 -2
v 1.9 4.5 -1.9
v 2 4.5 -1.9
v 1.9 4.5 -2
v 2 4.5 -2

# faces
f 3/3/1 2/3/1 1/3/1
f 4/3/1 2/3/1 3/3/1
f 7/3/1 6/3/1 5/3/1
f 8/3/1 6/3/1 7/3/1
f 11/3/1 10/3/1 9/3/1
f 12/3/1 10/3/1 11/3/1
f 13/1/1 12/1/1 11/1/1
f 14/1/1 12/1/1 13/1/1
f 17/3/1 16/3/1 15/3/1
f 18/3/1 16/3/1 17/3/1
f 19/3/2 20/3/2 21/3/2
f 21/3/2 20/3/2 22/3/2
f 21/1/2 22/1/2 23/1/2
f 23/1/2 22/1/2 24/1/2
f 25/3/2 26/3/2 27/3/2
f 27/3/2 26/3/2 28/3/2
f 29/3/2 30/3/2 31/3/2
f 31/3/2 30/3/2 32/3/2
f 33/3/2 34/3/2 35/3/2
f 35/3/2 34/3/2 36/3/2
f 39/3/3 38/3/3 37/3/3
f 43/3/3 39/3/3 37/3/3
f 43/3/3 40/3/3 39/3/3
f 44/3/3 40/3/3 43/3/3
f 45/3/3 40/3/3 44/3/3
f 46/3/3 40/3/3 45/3/3
f 48/3/3 42/3/3 41/3/3
f 49/1/3 43/1/3 42/1/3
f 49/3/3 42/3/3 48/3/3
f 50/3/3 44/3/3 43/3/3
f 50/1/3 43/1/3 49/1/3
f 51/2/3 45/2/3 44/2/3
f 51/3/3 44/3/3 50/3/3
f 52/3/3 47/3/3 46/3/3
f 52/2/3 45/2/3 51/2/3
f 52/3/3 46/3/3 45/3/3
f 53/3/3 47/3/3 52/3/3
f 54/3/3 47/3/3 53/3/3
f 55/3/3 51/3/3 50/3/3
f 55/3/3 53/3/3 52/3/3
f 55/3/3 52/3/3 51/3/3
f 56/3/3 53/3/3 55/3/3
f 57/3/3 55/3/3 50/3/3
f 58/3/3 55/3/3 57/3/3
f 59/3/4 60/3/4 61/3/4
f 59/3/4 61/3/4 65/3/4
f 61/3/4 62/3/4 65/3/4
f 65/3/4 62/3/4 66/3/4
f 66/3/4 62/3/4 67/3/4
f 67/3/4 62/3/4 68/3/4
f 63/3/4 64/3/4 70/3/4
f 64/1/4 65/1/4 71/1/4
f 70/3/4 64/3/4 71/3/4
f 65/3/4 66/3/4 72/3/4
f 71/1/4 65/1/4 72/1/4
f 66/2/4 67/2/4 73/2/4
f 72/3/4 66/3/4 73/3/4
f 68/3/4 69/3/4 74/3/4
f 73/2/4 67/2/4 74/2/4
f 67/3/4 68/3/4 74/3/4
f 74/3/4 69/3/4 75/3/4
f 75/3/4 69/3/4 76/3/4
f 72/3/4 73/3/4 77/3/4
f 74/3/4 75/3/4 77/3/4
f 73/3/4 74/3/4 77/3/4
f 77/3/4 75/3/4 78/3/4
f 72/3/4 77/3/4 79/3/4
f 79/3/4 77/3/4 80/3/4
f 83/3/5 82/3/5 81/3/5
f 84/3/5 82/3/5 83/3/5
f 89/3/5 86/3/5 85/3/5
f 90/3/5 86/3/5 89/3/5
f 91/3/5 88/3/5 87/3/5
f 92/3/5 88/3/5 91/3/5
f 93/3/6 94/3/6 97/3/6
f 97/3/6 94/3/6 98/3/6
f 95/3/6 96/3/6 99/3/6
f 99/3/6 96/3/6 100/3/6
f 101/3/6 102/3/6 105/3/6
f 105/3/6 102/3/6 106/3/6
f 103/3/6 104/3/6 107/3/6
f 107/3/6 104/3/6 108/3/6
f 109/3/6 110/3/6 111/3/6
f 111/3/6 110/3/6 112/3/6
