# MagicaVoxel @ Ephtracy

# group
o 

# material
mtllib morningStar.mtl
usemtl palette

# normals
vn -1 0 0
vn 1 0 0
vn 0 0 1
vn 0 0 -1
vn 0 -1 0
vn 0 1 0

# texcoords
vt 0.537109 0.5
vt 0.982422 0.5
vt 0.986328 0.5

# verts
v 1.7 3.8 -1.9
v 1.7 3.8 -2
v 1.7 3.9 -1.9
v 1.7 3.9 -2
v 1.8 2.6 -1.9
v 1.8 2.6 -2
v 1.8 2.7 -1.9
v 1.8 2.7 -2
v 1.8 3.7 -1.9
v 1.8 3.7 -2
v 1.8 3.8 -1.8
v 1.8 3.8 -1.9
v 1.8 3.8 -2
v 1.8 3.8 -2.1
v 1.8 3.9 -1.8
v 1.8 3.9 -1.9
v 1.8 3.9 -2
v 1.8 3.9 -2.1
v 1.8 4 -1.9
v 1.8 4 -2
v 1.9 2 -1.9
v 1.9 2 -2
v 1.9 2.1 -1.9
v 1.9 2.1 -2
v 1.9 2.6 -1.8
v 1.9 2.6 -1.9
v 1.9 2.6 -2
v 1.9 2.6 -2.1
v 1.9 2.7 -1.8
v 1.9 2.7 -1.9
v 1.9 2.7 -2
v 1.9 2.7 -2.1
v 1.9 3.7 -1.8
v 1.9 3.7 -1.9
v 1.9 3.7 -2
v 1.9 3.7 -2.1
v 1.9 3.8 -1.7
v 1.9 3.8 -1.8
v 1.9 3.8 -1.9
v 1.9 3.8 -2
v 1.9 3.8 -2.1
v 1.9 3.8 -2.2
v 1.9 3.9 -1.7
v 1.9 3.9 -1.8
v 1.9 3.9 -1.9
v 1.9 3.9 -2
v 1.9 3.9 -2.1
v 1.9 3.9 -2.2
v 1.9 4 -1.8
v 1.9 4 -1.9
v 1.9 4 -2
v 1.9 4 -2.1
v 1.9 4.1 -1.9
v 1.9 4.1 -2
v 2 2 -1.9
v 2 2 -2
v 2 2.1 -1.9
v 2 2.1 -2
v 2 2.6 -1.8
v 2 2.6 -1.9
v 2 2.6 -2
v 2 2.6 -2.1
v 2 2.7 -1.8
v 2 2.7 -1.9
v 2 2.7 -2
v 2 2.7 -2.1
v 2 3.7 -1.8
v 2 3.7 -1.9
v 2 3.7 -2
v 2 3.7 -2.1
v 2 3.8 -1.7
v 2 3.8 -1.8
v 2 3.8 -1.9
v 2 3.8 -2
v 2 3.8 -2.1
v 2 3.8 -2.2
v 2 3.9 -1.7
v 2 3.9 -1.8
v 2 3.9 -1.9
v 2 3.9 -2
v 2 3.9 -2.1
v 2 3.9 -2.2
v 2 4 -1.8
v 2 4 -1.9
v 2 4 -2
v 2 4 -2.1
v 2 4.1 -1.9
v 2 4.1 -2
v 2.1 2.6 -1.9
v 2.1 2.6 -2
v 2.1 2.7 -1.9
v 2.1 2.7 -2
v 2.1 3.7 -1.9
v 2.1 3.7 -2
v 2.1 3.8 -1.8
v 2.1 3.8 -1.9
v 2.1 3.8 -2
v 2.1 3.8 -2.1
v 2.1 3.9 -1.8
v 2.1 3.9 -1.9
v 2.1 3.9 -2
v 2.1 3.9 -2.1
v 2.1 4 -1.9
v 2.1 4 -2
v 2.2 3.8 -1.9
v 2.2 3.8 -2
v 2.2 3.9 -1.9
v 2.2 3.9 -2
v 1.9 3.8 -1.7
v 1.9 3.9 -1.7
v 2 3.8 -1.7
v 2 3.9 -1.7
v 1.8 3.8 -1.8
v 1.8 3.9 -1.8
v 1.9 2.6 -1.8
v 1.9 2.7 -1.8
v 1.9 3.7 -1.8
v 1.9 3.8 -1.8
v 1.9 3.9 -1.8
v 1.9 4 -1.8
v 2 2.6 -1.8
v 2 2.7 -1.8
v 2 3.7 -1.8
v 2 3.8 -1.8
v 2 3.9 -1.8
v 2 4 -1.8
v 2.1 3.8 -1.8
v 2.1 3.9 -1.8
v 1.7 3.8 -1.9
v 1.7 3.9 -1.9
v 1.8 2.6 -1.9
v 1.8 2.7 -1.9
v 1.8 3.7 -1.9
v 1.8 3.8 -1.9
v 1.8 3.9 -1.9
v 1.8 4 -1.9
v 1.9 2 -1.9
v 1.9 2.1 -1.9
v 1.9 2.6 -1.9
v 1.9 2.7 -1.9
v 1.9 3.7 -1.9
v 1.9 3.8 -1.9
v 1.9 3.9 -1.9
v 1.9 4 -1.9
v 1.9 4.1 -1.9
v 2 2 -1.9
v 2 2.1 -1.9
v 2 2.6 -1.9
v 2 2.7 -1.9
v 2 3.7 -1.9
v 2 3.8 -1.9
v 2 3.9 -1.9
v 2 4 -1.9
v 2 4.1 -1.9
v 2.1 2.6 -1.9
v 2.1 2.7 -1.9
v 2.1 3.7 -1.9
v 2.1 3.8 -1.9
v 2.1 3.9 -1.9
v 2.1 4 -1.9
v 2.2 3.8 -1.9
v 2.2 3.9 -1.9
v 1.7 3.8 -2
v 1.7 3.9 -2
v 1.8 2.6 -2
v 1.8 2.7 -2
v 1.8 3.7 -2
v 1.8 3.8 -2
v 1.8 3.9 -2
v 1.8 4 -2
v 1.9 2 -2
v 1.9 2.1 -2
v 1.9 2.6 -2
v 1.9 2.7 -2
v 1.9 3.7 -2
v 1.9 3.8 -2
v 1.9 3.9 -2
v 1.9 4 -2
v 1.9 4.1 -2
v 2 2 -2
v 2 2.1 -2
v 2 2.6 -2
v 2 2.7 -2
v 2 3.7 -2
v 2 3.8 -2
v 2 3.9 -2
v 2 4 -2
v 2 4.1 -2
v 2.1 2.6 -2
v 2.1 2.7 -2
v 2.1 3.7 -2
v 2.1 3.8 -2
v 2.1 3.9 -2
v 2.1 4 -2
v 2.2 3.8 -2
v 2.2 3.9 -2
v 1.8 3.8 -2.1
v 1.8 3.9 -2.1
v 1.9 2.6 -2.1
v 1.9 2.7 -2.1
v 1.9 3.7 -2.1
v 1.9 3.8 -2.1
v 1.9 3.9 -2.1
v 1.9 4 -2.1
v 2 2.6 -2.1
v 2 2.7 -2.1
v 2 3.7 -2.1
v 2 3.8 -2.1
v 2 3.9 -2.1
v 2 4 -2.1
v 2.1 3.8 -2.1
v 2.1 3.9 -2.1
v 1.9 3.8 -2.2
v 1.9 3.9 -2.2
v 2 3.8 -2.2
v 2 3.9 -2.2
v 1.9 2 -1.9
v 2 2 -1.9
v 1.9 2 -2
v 2 2 -2
v 1.9 2.6 -1.8
v 2 2.6 -1.8
v 1.8 2.6 -1.9
v 1.9 2.6 -1.9
v 2 2.6 -1.9
v 2.1 2.6 -1.9
v 1.8 2.6 -2
v 1.9 2.6 -2
v 2 2.6 -2
v 2.1 2.6 -2
v 1.9 2.6 -2.1
v 2 2.6 -2.1
v 1.9 3.7 -1.8
v 2 3.7 -1.8
v 1.8 3.7 -1.9
v 1.9 3.7 -1.9
v 2 3.7 -1.9
v 2.1 3.7 -1.9
v 1.8 3.7 -2
v 1.9 3.7 -2
v 2 3.7 -2
v 2.1 3.7 -2
v 1.9 3.7 -2.1
v 2 3.7 -2.1
v 1.9 3.8 -1.7
v 2 3.8 -1.7
v 1.8 3.8 -1.8
v 1.9 3.8 -1.8
v 2 3.8 -1.8
v 2.1 3.8 -1.8
v 1.7 3.8 -1.9
v 1.8 3.8 -1.9
v 1.9 3.8 -1.9
v 2 3.8 -1.9
v 2.1 3.8 -1.9
v 2.2 3.8 -1.9
v 1.7 3.8 -2
v 1.8 3.8 -2
v 1.9 3.8 -2
v 2 3.8 -2
v 2.1 3.8 -2
v 2.2 3.8 -2
v 1.8 3.8 -2.1
v 1.9 3.8 -2.1
v 2 3.8 -2.1
v 2.1 3.8 -2.1
v 1.9 3.8 -2.2
v 2 3.8 -2.2
v 1.9 2.7 -1.8
v 2 2.7 -1.8
v 1.8 2.7 -1.9
v 1.9 2.7 -1.9
v 2 2.7 -1.9
v 2.1 2.7 -1.9
v 1.8 2.7 -2
v 1.9 2.7 -2
v 2 2.7 -2
v 2.1 2.7 -2
v 1.9 2.7 -2.1
v 2 2.7 -2.1
v 1.9 3.9 -1.7
v 2 3.9 -1.7
v 1.8 3.9 -1.8
v 1.9 3.9 -1.8
v 2 3.9 -1.8
v 2.1 3.9 -1.8
v 1.7 3.9 -1.9
v 1.8 3.9 -1.9
v 1.9 3.9 -1.9
v 2 3.9 -1.9
v 2.1 3.9 -1.9
v 2.2 3.9 -1.9
v 1.7 3.9 -2
v 1.8 3.9 -2
v 1.9 3.9 -2
v 2 3.9 -2
v 2.1 3.9 -2
v 2.2 3.9 -2
v 1.8 3.9 -2.1
v 1.9 3.9 -2.1
v 2 3.9 -2.1
v 2.1 3.9 -2.1
v 1.9 3.9 -2.2
v 2 3.9 -2.2
v 1.9 4 -1.8
v 2 4 -1.8
v 1.8 4 -1.9
v 1.9 4 -1.9
v 2 4 -1.9
v 2.1 4 -1.9
v 1.8 4 -2
v 1.9 4 -2
v 2 4 -2
v 2.1 4 -2
v 1.9 4 -2.1
v 2 4 -2.1
v 1.9 4.1 -1.9
v 2 4.1 -1.9
v 1.9 4.1 -2
v 2 4.1 -2

# faces
f 3/2/1 2/2/1 1/2/1
f 4/2/1 2/2/1 3/2/1
f 7/2/1 6/2/1 5/2/1
f 8/2/1 6/2/1 7/2/1
f 12/2/1 10/2/1 9/2/1
f 13/2/1 10/2/1 12/2/1
f 15/2/1 12/2/1 11/2/1
f 16/2/1 12/2/1 15/2/1
f 17/2/1 14/2/1 13/2/1
f 18/2/1 14/2/1 17/2/1
f 19/2/1 17/2/1 16/2/1
f 20/2/1 17/2/1 19/2/1
f 23/3/1 22/3/1 21/3/1
f 24/3/1 22/3/1 23/3/1
f 26/1/1 24/1/1 23/1/1
f 27/1/1 24/1/1 26/1/1
f 29/2/1 26/2/1 25/2/1
f 30/2/1 26/2/1 29/2/1
f 31/2/1 28/2/1 27/2/1
f 32/2/1 28/2/1 31/2/1
f 34/2/1 31/2/1 30/2/1
f 35/2/1 31/2/1 34/2/1
f 38/2/1 34/2/1 33/2/1
f 39/2/1 34/2/1 38/2/1
f 40/2/1 36/2/1 35/2/1
f 41/2/1 36/2/1 40/2/1
f 43/2/1 38/2/1 37/2/1
f 44/2/1 38/2/1 43/2/1
f 47/2/1 42/2/1 41/2/1
f 48/2/1 42/2/1 47/2/1
f 49/2/1 45/2/1 44/2/1
f 50/2/1 45/2/1 49/2/1
f 51/2/1 47/2/1 46/2/1
f 52/2/1 47/2/1 51/2/1
f 53/2/1 51/2/1 50/2/1
f 54/2/1 51/2/1 53/2/1
f 55/3/2 56/3/2 57/3/2
f 57/3/2 56/3/2 58/3/2
f 57/1/2 58/1/2 60/1/2
f 60/1/2 58/1/2 61/1/2
f 59/2/2 60/2/2 63/2/2
f 63/2/2 60/2/2 64/2/2
f 61/2/2 62/2/2 65/2/2
f 65/2/2 62/2/2 66/2/2
f 64/2/2 65/2/2 68/2/2
f 68/2/2 65/2/2 69/2/2
f 67/2/2 68/2/2 72/2/2
f 72/2/2 68/2/2 73/2/2
f 69/2/2 70/2/2 74/2/2
f 74/2/2 70/2/2 75/2/2
f 71/2/2 72/2/2 77/2/2
f 77/2/2 72/2/2 78/2/2
f 75/2/2 76/2/2 81/2/2
f 81/2/2 76/2/2 82/2/2
f 78/2/2 79/2/2 83/2/2
f 83/2/2 79/2/2 84/2/2
f 80/2/2 81/2/2 85/2/2
f 85/2/2 81/2/2 86/2/2
f 84/2/2 85/2/2 87/2/2
f 87/2/2 85/2/2 88/2/2
f 89/2/2 90/2/2 91/2/2
f 91/2/2 90/2/2 92/2/2
f 93/2/2 94/2/2 96/2/2
f 96/2/2 94/2/2 97/2/2
f 95/2/2 96/2/2 99/2/2
f 99/2/2 96/2/2 100/2/2
f 97/2/2 98/2/2 101/2/2
f 101/2/2 98/2/2 102/2/2
f 100/2/2 101/2/2 103/2/2
f 103/2/2 101/2/2 104/2/2
f 105/2/2 106/2/2 107/2/2
f 107/2/2 106/2/2 108/2/2
f 111/2/3 110/2/3 109/2/3
f 112/2/3 110/2/3 111/2/3
f 118/2/3 114/2/3 113/2/3
f 119/2/3 114/2/3 118/2/3
f 121/2/3 116/2/3 115/2/3
f 122/2/3 116/2/3 121/2/3
f 123/2/3 118/2/3 117/2/3
f 124/2/3 118/2/3 123/2/3
f 125/2/3 120/2/3 119/2/3
f 126/2/3 120/2/3 125/2/3
f 127/2/3 125/2/3 124/2/3
f 128/2/3 125/2/3 127/2/3
f 134/2/3 130/2/3 129/2/3
f 135/2/3 130/2/3 134/2/3
f 139/2/3 132/2/3 131/2/3
f 140/2/3 132/2/3 139/2/3
f 141/2/3 134/2/3 133/2/3
f 142/2/3 134/2/3 141/2/3
f 143/2/3 136/2/3 135/2/3
f 144/2/3 136/2/3 143/2/3
f 146/3/3 138/3/3 137/3/3
f 147/1/3 139/1/3 138/1/3
f 147/3/3 138/3/3 146/3/3
f 148/1/3 139/1/3 147/1/3
f 149/2/3 141/2/3 140/2/3
f 150/2/3 141/2/3 149/2/3
f 153/2/3 145/2/3 144/2/3
f 154/2/3 145/2/3 153/2/3
f 155/2/3 149/2/3 148/2/3
f 156/2/3 149/2/3 155/2/3
f 157/2/3 151/2/3 150/2/3
f 158/2/3 151/2/3 157/2/3
f 159/2/3 153/2/3 152/2/3
f 160/2/3 153/2/3 159/2/3
f 161/2/3 159/2/3 158/2/3
f 162/2/3 159/2/3 161/2/3
f 163/2/4 164/2/4 168/2/4
f 168/2/4 164/2/4 169/2/4
f 165/2/4 166/2/4 173/2/4
f 173/2/4 166/2/4 174/2/4
f 167/2/4 168/2/4 175/2/4
f 175/2/4 168/2/4 176/2/4
f 169/2/4 170/2/4 177/2/4
f 177/2/4 170/2/4 178/2/4
f 171/3/4 172/3/4 180/3/4
f 172/1/4 173/1/4 181/1/4
f 180/3/4 172/3/4 181/3/4
f 181/1/4 173/1/4 182/1/4
f 174/2/4 175/2/4 183/2/4
f 183/2/4 175/2/4 184/2/4
f 178/2/4 179/2/4 187/2/4
f 187/2/4 179/2/4 188/2/4
f 182/2/4 183/2/4 189/2/4
f 189/2/4 183/2/4 190/2/4
f 184/2/4 185/2/4 191/2/4
f 191/2/4 185/2/4 192/2/4
f 186/2/4 187/2/4 193/2/4
f 193/2/4 187/2/4 194/2/4
f 192/2/4 193/2/4 195/2/4
f 195/2/4 193/2/4 196/2/4
f 197/2/4 198/2/4 202/2/4
f 202/2/4 198/2/4 203/2/4
f 199/2/4 200/2/4 205/2/4
f 205/2/4 200/2/4 206/2/4
f 201/2/4 202/2/4 207/2/4
f 207/2/4 202/2/4 208/2/4
f 203/2/4 204/2/4 209/2/4
f 209/2/4 204/2/4 210/2/4
f 208/2/4 209/2/4 211/2/4
f 211/2/4 209/2/4 212/2/4
f 213/2/4 214/2/4 215/2/4
f 215/2/4 214/2/4 216/2/4
f 219/3/5 218/3/5 217/3/5
f 220/3/5 218/3/5 219/3/5
f 224/2/5 222/2/5 221/2/5
f 225/2/5 222/2/5 224/2/5
f 227/2/5 224/2/5 223/2/5
f 228/2/5 224/2/5 227/2/5
f 229/2/5 226/2/5 225/2/5
f 230/2/5 226/2/5 229/2/5
f 231/2/5 229/2/5 228/2/5
f 232/2/5 229/2/5 231/2/5
f 236/2/5 234/2/5 233/2/5
f 237/2/5 234/2/5 236/2/5
f 239/2/5 236/2/5 235/2/5
f 240/2/5 236/2/5 239/2/5
f 241/2/5 238/2/5 237/2/5
f 242/2/5 238/2/5 241/2/5
f 243/2/5 241/2/5 240/2/5
f 244/2/5 241/2/5 243/2/5
f 248/2/5 246/2/5 245/2/5
f 249/2/5 246/2/5 248/2/5
f 252/2/5 248/2/5 247/2/5
f 253/2/5 248/2/5 252/2/5
f 254/2/5 250/2/5 249/2/5
f 255/2/5 250/2/5 254/2/5
f 257/2/5 252/2/5 251/2/5
f 258/2/5 252/2/5 257/2/5
f 261/2/5 256/2/5 255/2/5
f 262/2/5 256/2/5 261/2/5
f 263/2/5 259/2/5 258/2/5
f 264/2/5 259/2/5 263/2/5
f 265/2/5 261/2/5 260/2/5
f 266/2/5 261/2/5 265/2/5
f 267/2/5 265/2/5 264/2/5
f 268/2/5 265/2/5 267/2/5
f 269/2/6 270/2/6 272/2/6
f 272/2/6 270/2/6 273/2/6
f 271/2/6 272/2/6 275/2/6
f 275/2/6 272/2/6 276/2/6
f 273/2/6 274/2/6 277/2/6
f 277/2/6 274/2/6 278/2/6
f 276/2/6 277/2/6 279/2/6
f 279/2/6 277/2/6 280/2/6
f 281/2/6 282/2/6 284/2/6
f 284/2/6 282/2/6 285/2/6
f 283/2/6 284/2/6 288/2/6
f 288/2/6 284/2/6 289/2/6
f 285/2/6 286/2/6 290/2/6
f 290/2/6 286/2/6 291/2/6
f 287/2/6 288/2/6 293/2/6
f 293/2/6 288/2/6 294/2/6
f 291/2/6 292/2/6 297/2/6
f 297/2/6 292/2/6 298/2/6
f 294/2/6 295/2/6 299/2/6
f 299/2/6 295/2/6 300/2/6
f 296/2/6 297/2/6 301/2/6
f 301/2/6 297/2/6 302/2/6
f 300/2/6 301/2/6 303/2/6
f 303/2/6 301/2/6 304/2/6
f 305/2/6 306/2/6 308/2/6
f 308/2/6 306/2/6 309/2/6
f 307/2/6 308/2/6 311/2/6
f 311/2/6 308/2/6 312/2/6
f 309/2/6 310/2/6 313/2/6
f 313/2/6 310/2/6 314/2/6
f 312/2/6 313/2/6 315/2/6
f 315/2/6 313/2/6 316/2/6
f 317/2/6 318/2/6 319/2/6
f 319/2/6 318/2/6 320/2/6
