# MagicaVoxel @ Ephtracy

# group
o 

# material
mtllib coin.mtl
usemtl palette

# normals
vn -1 0 0
vn 1 0 0
vn 0 0 1
vn 0 0 -1
vn 0 -1 0
vn 0 1 0

# texcoords
vt 0.0136719 0.5
vt 0.0175781 0.5

# verts
v 0 2.2 0
v 0 2.2 -0.1
v 0 2.8 0
v 0 2.8 -0.1
v 0.1 2.1 0
v 0.1 2.1 -0.1
v 0.1 2.2 0
v 0.1 2.2 -0.1
v 0.1 2.8 0
v 0.1 2.8 -0.1
v 0.1 2.9 0
v 0.1 2.9 -0.1
v 0.2 2 0
v 0.2 2 -0.1
v 0.2 2.1 0
v 0.2 2.1 -0.1
v 0.2 2.9 0
v 0.2 2.9 -0.1
v 0.2 3 0
v 0.2 3 -0.1
v 0.8 2 0
v 0.8 2 -0.1
v 0.8 2.1 0
v 0.8 2.1 -0.1
v 0.8 2.9 0
v 0.8 2.9 -0.1
v 0.8 3 0
v 0.8 3 -0.1
v 0.9 2.1 0
v 0.9 2.1 -0.1
v 0.9 2.2 0
v 0.9 2.2 -0.1
v 0.9 2.8 0
v 0.9 2.8 -0.1
v 0.9 2.9 0
v 0.9 2.9 -0.1
v 1 2.2 0
v 1 2.2 -0.1
v 1 2.8 0
v 1 2.8 -0.1
v 0 2.2 0
v 0 2.8 0
v 0.1 2.1 0
v 0.1 2.2 0
v 0.1 2.3 0
v 0.1 2.7 0
v 0.1 2.8 0
v 0.1 2.9 0
v 0.2 2 0
v 0.2 2.1 0
v 0.2 2.2 0
v 0.2 2.3 0
v 0.2 2.7 0
v 0.2 2.8 0
v 0.2 2.9 0
v 0.2 3 0
v 0.3 2.1 0
v 0.3 2.2 0
v 0.3 2.3 0
v 0.3 2.4 0
v 0.3 2.6 0
v 0.3 2.7 0
v 0.3 2.8 0
v 0.3 2.9 0
v 0.4 2.4 0
v 0.4 2.6 0
v 0.4 2.7 0
v 0.6 2.6 0
v 0.6 2.7 0
v 0.7 2.1 0
v 0.7 2.2 0
v 0.7 2.3 0
v 0.7 2.7 0
v 0.7 2.8 0
v 0.7 2.9 0
v 0.8 2 0
v 0.8 2.1 0
v 0.8 2.2 0
v 0.8 2.3 0
v 0.8 2.7 0
v 0.8 2.8 0
v 0.8 2.9 0
v 0.8 3 0
v 0.9 2.1 0
v 0.9 2.2 0
v 0.9 2.3 0
v 0.9 2.7 0
v 0.9 2.8 0
v 0.9 2.9 0
v 1 2.2 0
v 1 2.8 0
v 0 2.2 -0.1
v 0 2.8 -0.1
v 0.1 2.1 -0.1
v 0.1 2.2 -0.1
v 0.1 2.3 -0.1
v 0.1 2.7 -0.1
v 0.1 2.8 -0.1
v 0.1 2.9 -0.1
v 0.2 2 -0.1
v 0.2 2.1 -0.1
v 0.2 2.2 -0.1
v 0.2 2.3 -0.1
v 0.2 2.7 -0.1
v 0.2 2.8 -0.1
v 0.2 2.9 -0.1
v 0.2 3 -0.1
v 0.3 2.1 -0.1
v 0.3 2.2 -0.1
v 0.3 2.3 -0.1
v 0.3 2.4 -0.1
v 0.3 2.6 -0.1
v 0.3 2.7 -0.1
v 0.3 2.8 -0.1
v 0.3 2.9 -0.1
v 0.4 2.4 -0.1
v 0.4 2.6 -0.1
v 0.4 2.7 -0.1
v 0.6 2.6 -0.1
v 0.6 2.7 -0.1
v 0.7 2.1 -0.1
v 0.7 2.2 -0.1
v 0.7 2.3 -0.1
v 0.7 2.7 -0.1
v 0.7 2.8 -0.1
v 0.7 2.9 -0.1
v 0.8 2 -0.1
v 0.8 2.1 -0.1
v 0.8 2.2 -0.1
v 0.8 2.3 -0.1
v 0.8 2.7 -0.1
v 0.8 2.8 -0.1
v 0.8 2.9 -0.1
v 0.8 3 -0.1
v 0.9 2.1 -0.1
v 0.9 2.2 -0.1
v 0.9 2.3 -0.1
v 0.9 2.7 -0.1
v 0.9 2.8 -0.1
v 0.9 2.9 -0.1
v 1 2.2 -0.1
v 1 2.8 -0.1
v 0.2 2 0
v 0.8 2 0
v 0.2 2 -0.1
v 0.8 2 -0.1
v 0.1 2.1 0
v 0.2 2.1 0
v 0.8 2.1 0
v 0.9 2.1 0
v 0.1 2.1 -0.1
v 0.2 2.1 -0.1
v 0.8 2.1 -0.1
v 0.9 2.1 -0.1
v 0 2.2 0
v 0.1 2.2 0
v 0.9 2.2 0
v 1 2.2 0
v 0 2.2 -0.1
v 0.1 2.2 -0.1
v 0.9 2.2 -0.1
v 1 2.2 -0.1
v 0 2.8 0
v 0.1 2.8 0
v 0.9 2.8 0
v 1 2.8 0
v 0 2.8 -0.1
v 0.1 2.8 -0.1
v 0.9 2.8 -0.1
v 1 2.8 -0.1
v 0.1 2.9 0
v 0.2 2.9 0
v 0.8 2.9 0
v 0.9 2.9 0
v 0.1 2.9 -0.1
v 0.2 2.9 -0.1
v 0.8 2.9 -0.1
v 0.9 2.9 -0.1
v 0.2 3 0
v 0.8 3 0
v 0.2 3 -0.1
v 0.8 3 -0.1

# faces
f 3/1/1 2/1/1 1/1/1
f 4/1/1 2/1/1 3/1/1
f 7/1/1 6/1/1 5/1/1
f 8/1/1 6/1/1 7/1/1
f 11/1/1 10/1/1 9/1/1
f 12/1/1 10/1/1 11/1/1
f 15/1/1 14/1/1 13/1/1
f 16/1/1 14/1/1 15/1/1
f 19/1/1 18/1/1 17/1/1
f 20/1/1 18/1/1 19/1/1
f 21/1/2 22/1/2 23/1/2
f 23/1/2 22/1/2 24/1/2
f 25/1/2 26/1/2 27/1/2
f 27/1/2 26/1/2 28/1/2
f 29/1/2 30/1/2 31/1/2
f 31/1/2 30/1/2 32/1/2
f 33/1/2 34/1/2 35/1/2
f 35/1/2 34/1/2 36/1/2
f 37/1/2 38/1/2 39/1/2
f 39/1/2 38/1/2 40/1/2
f 44/1/3 42/1/3 41/1/3
f 45/1/3 42/1/3 44/1/3
f 46/1/3 42/1/3 45/1/3
f 47/1/3 42/1/3 46/1/3
f 50/1/3 44/1/3 43/1/3
f 50/1/3 45/1/3 44/1/3
f 51/1/3 45/1/3 50/1/3
f 52/2/3 46/2/3 45/2/3
f 52/1/3 45/1/3 51/1/3
f 53/1/3 48/1/3 47/1/3
f 53/2/3 46/2/3 52/2/3
f 53/1/3 47/1/3 46/1/3
f 54/1/3 48/1/3 53/1/3
f 55/1/3 48/1/3 54/1/3
f 57/1/3 50/1/3 49/1/3
f 57/1/3 51/1/3 50/1/3
f 58/2/3 52/2/3 51/2/3
f 58/1/3 51/1/3 57/1/3
f 59/1/3 53/1/3 52/1/3
f 59/2/3 52/2/3 58/2/3
f 60/1/3 53/1/3 59/1/3
f 61/1/3 53/1/3 60/1/3
f 62/2/3 54/2/3 53/2/3
f 62/1/3 53/1/3 61/1/3
f 63/1/3 56/1/3 55/1/3
f 63/2/3 54/2/3 62/2/3
f 63/1/3 55/1/3 54/1/3
f 64/1/3 56/1/3 63/1/3
f 65/1/3 60/1/3 59/1/3
f 65/2/3 61/2/3 60/2/3
f 65/1/3 59/1/3 58/1/3
f 66/1/3 62/1/3 61/1/3
f 66/2/3 61/2/3 65/2/3
f 66/1/3 63/1/3 62/1/3
f 67/1/3 63/1/3 66/1/3
f 68/1/3 66/1/3 65/1/3
f 68/2/3 67/2/3 66/2/3
f 69/1/3 63/1/3 67/1/3
f 69/2/3 67/2/3 68/2/3
f 70/1/3 57/1/3 49/1/3
f 70/2/3 58/2/3 57/2/3
f 71/1/3 65/1/3 58/1/3
f 71/2/3 58/2/3 70/2/3
f 71/1/3 69/1/3 68/1/3
f 71/1/3 68/1/3 65/1/3
f 72/1/3 69/1/3 71/1/3
f 73/1/3 63/1/3 69/1/3
f 73/1/3 69/1/3 72/1/3
f 74/2/3 64/2/3 63/2/3
f 74/1/3 63/1/3 73/1/3
f 75/1/3 56/1/3 64/1/3
f 75/2/3 64/2/3 74/2/3
f 76/1/3 70/1/3 49/1/3
f 76/1/3 71/1/3 70/1/3
f 77/1/3 71/1/3 76/1/3
f 78/2/3 72/2/3 71/2/3
f 78/1/3 71/1/3 77/1/3
f 79/1/3 73/1/3 72/1/3
f 79/2/3 72/2/3 78/2/3
f 80/2/3 74/2/3 73/2/3
f 80/1/3 73/1/3 79/1/3
f 81/1/3 75/1/3 74/1/3
f 81/2/3 74/2/3 80/2/3
f 82/1/3 56/1/3 75/1/3
f 82/1/3 75/1/3 81/1/3
f 83/1/3 56/1/3 82/1/3
f 84/1/3 79/1/3 78/1/3
f 84/1/3 78/1/3 77/1/3
f 85/1/3 79/1/3 84/1/3
f 86/2/3 80/2/3 79/2/3
f 86/1/3 79/1/3 85/1/3
f 87/1/3 81/1/3 80/1/3
f 87/2/3 80/2/3 86/2/3
f 87/1/3 82/1/3 81/1/3
f 88/1/3 82/1/3 87/1/3
f 89/1/3 82/1/3 88/1/3
f 90/1/3 86/1/3 85/1/3
f 90/1/3 88/1/3 87/1/3
f 90/1/3 87/1/3 86/1/3
f 91/1/3 88/1/3 90/1/3
f 92/1/4 93/1/4 95/1/4
f 95/1/4 93/1/4 96/1/4
f 96/1/4 93/1/4 97/1/4
f 97/1/4 93/1/4 98/1/4
f 94/1/4 95/1/4 101/1/4
f 95/1/4 96/1/4 101/1/4
f 101/1/4 96/1/4 102/1/4
f 96/2/4 97/2/4 103/2/4
f 102/1/4 96/1/4 103/1/4
f 98/1/4 99/1/4 104/1/4
f 103/2/4 97/2/4 104/2/4
f 97/1/4 98/1/4 104/1/4
f 104/1/4 99/1/4 105/1/4
f 105/1/4 99/1/4 106/1/4
f 100/1/4 101/1/4 108/1/4
f 101/1/4 102/1/4 108/1/4
f 102/2/4 103/2/4 109/2/4
f 108/1/4 102/1/4 109/1/4
f 103/1/4 104/1/4 110/1/4
f 109/2/4 103/2/4 110/2/4
f 110/1/4 104/1/4 111/1/4
f 111/1/4 104/1/4 112/1/4
f 104/2/4 105/2/4 113/2/4
f 112/1/4 104/1/4 113/1/4
f 106/1/4 107/1/4 114/1/4
f 113/2/4 105/2/4 114/2/4
f 105/1/4 106/1/4 114/1/4
f 114/1/4 107/1/4 115/1/4
f 110/1/4 111/1/4 116/1/4
f 111/2/4 112/2/4 116/2/4
f 109/1/4 110/1/4 116/1/4
f 112/1/4 113/1/4 117/1/4
f 116/2/4 112/2/4 117/2/4
f 113/1/4 114/1/4 117/1/4
f 117/1/4 114/1/4 118/1/4
f 116/1/4 117/1/4 119/1/4
f 117/2/4 118/2/4 119/2/4
f 118/1/4 114/1/4 120/1/4
f 119/2/4 118/2/4 120/2/4
f 100/1/4 108/1/4 121/1/4
f 108/2/4 109/2/4 121/2/4
f 109/1/4 116/1/4 122/1/4
f 121/2/4 109/2/4 122/2/4
f 119/1/4 120/1/4 122/1/4
f 116/1/4 119/1/4 122/1/4
f 122/1/4 120/1/4 123/1/4
f 120/1/4 114/1/4 124/1/4
f 123/1/4 120/1/4 124/1/4
f 114/2/4 115/2/4 125/2/4
f 124/1/4 114/1/4 125/1/4
f 115/1/4 107/1/4 126/1/4
f 125/2/4 115/2/4 126/2/4
f 100/1/4 121/1/4 127/1/4
f 121/1/4 122/1/4 127/1/4
f 127/1/4 122/1/4 128/1/4
f 122/2/4 123/2/4 129/2/4
f 128/1/4 122/1/4 129/1/4
f 123/1/4 124/1/4 130/1/4
f 129/2/4 123/2/4 130/2/4
f 124/2/4 125/2/4 131/2/4
f 130/1/4 124/1/4 131/1/4
f 125/1/4 126/1/4 132/1/4
f 131/2/4 125/2/4 132/2/4
f 126/1/4 107/1/4 133/1/4
f 132/1/4 126/1/4 133/1/4
f 133/1/4 107/1/4 134/1/4
f 129/1/4 130/1/4 135/1/4
f 128/1/4 129/1/4 135/1/4
f 135/1/4 130/1/4 136/1/4
f 130/2/4 131/2/4 137/2/4
f 136/1/4 130/1/4 137/1/4
f 131/1/4 132/1/4 138/1/4
f 137/2/4 131/2/4 138/2/4
f 132/1/4 133/1/4 138/1/4
f 138/1/4 133/1/4 139/1/4
f 139/1/4 133/1/4 140/1/4
f 136/1/4 137/1/4 141/1/4
f 138/1/4 139/1/4 141/1/4
f 137/1/4 138/1/4 141/1/4
f 141/1/4 139/1/4 142/1/4
f 145/1/5 144/1/5 143/1/5
f 146/1/5 144/1/5 145/1/5
f 151/1/5 148/1/5 147/1/5
f 152/1/5 148/1/5 151/1/5
f 153/1/5 150/1/5 149/1/5
f 154/1/5 150/1/5 153/1/5
f 159/1/5 156/1/5 155/1/5
f 160/1/5 156/1/5 159/1/5
f 161/1/5 158/1/5 157/1/5
f 162/1/5 158/1/5 161/1/5
f 163/1/6 164/1/6 167/1/6
f 167/1/6 164/1/6 168/1/6
f 165/1/6 166/1/6 169/1/6
f 169/1/6 166/1/6 170/1/6
f 171/1/6 172/1/6 175/1/6
f 175/1/6 172/1/6 176/1/6
f 173/1/6 174/1/6 177/1/6
f 177/1/6 174/1/6 178/1/6
f 179/1/6 180/1/6 181/1/6
f 181/1/6 180/1/6 182/1/6
